<?xml version="1.0" encoding="utf-8"?><svg viewBox="0 0 502.66 502.66" xmlns="http://www.w3.org/2000/svg" xmlns:xlink="http://www.w3.org/1999/xlink"><style>:root>svg{display:none}:root>svg:target{display:block}</style><svg viewBox="0 0 61 59" id="Buttom" xmlns="http://www.w3.org/2000/svg"><path d="M38.334 21.828a5.647 5.647 0 00-4.2-1.828 5.282 5.282 0 00-3.3 1.139c-.493.381-.94.848-1.334 1.393a6.747 6.747 0 00-1.334-1.393 5.282 5.282 0 00-3.3-1.139 5.65 5.65 0 00-4.2 1.828C19.592 22.994 19 24.586 19 26.311c0 1.776.662 3.402 2.083 5.116 1.271 1.534 3.098 3.091 5.214 4.894.722.616 1.54 1.314 2.391 2.057a1.231 1.231 0 001.623 0c.85-.743 1.67-1.441 2.393-2.057 2.115-1.803 3.942-3.36 5.213-4.894C39.338 29.713 40 28.087 40 26.311c0-1.725-.592-3.317-1.666-4.483z"/><rect x=".5" y=".5" width="60" height="58" rx="3.5"/></svg><svg viewBox="0 0 14 12" id="Vector" xmlns="http://www.w3.org/2000/svg"><path d="M.46 6.75h9.622l-4.647 4.201L6.595 12l6.642-6-6.641-6-1.161 1.049 4.647 4.201H.46v1.5z"/></svg><svg viewBox="0 0 502.664 502.664" id="icon" xmlns="http://www.w3.org/2000/svg"><path d="M153.821 358.226L0 274.337v-46.463l153.821-83.414v54.574L46.636 250.523l107.185 53.431v54.272zm26.273 29.358L282.103 115.08h32.227L212.084 387.584h-31.99zm168.749-29.358v-54.272l107.164-52.999-107.164-52.59v-53.927l153.821 83.522v46.183l-153.821 84.083z"/></svg><svg viewBox="0 0 13 12" id="left" xmlns="http://www.w3.org/2000/svg"><path d="M12.777 6.75H3.155l4.648 4.201L6.642 12 0 6l6.642-6 1.16 1.049L3.156 5.25h9.622v1.5z"/></svg><svg viewBox="0 0 10 6" id="path2" xmlns="http://www.w3.org/2000/svg"><path d="M5 4.508L8.67.838a.584.584 0 01.826.824L5.412 5.746a.583.583 0 01-.825 0L.504 1.662A.584.584 0 011.33.838L5 4.508z"/></svg><svg viewBox="0 0 26 16" id="vk" xmlns="http://www.w3.org/2000/svg"><path d="M25.862 13.98a1.794 1.794 0 00-.088-.17c-.451-.812-1.313-1.809-2.585-2.991l-.027-.027-.014-.014-.014-.013h-.013c-.578-.55-.943-.92-1.096-1.11-.28-.361-.343-.727-.19-1.097.108-.28.514-.87 1.218-1.773.37-.479.663-.862.88-1.15 1.561-2.077 2.238-3.403 2.03-3.98l-.08-.136c-.054-.081-.194-.155-.42-.223-.226-.068-.514-.079-.866-.034l-3.899.027a.506.506 0 00-.27.007l-.177.04-.068.034-.053.041a.602.602 0 00-.15.142.928.928 0 00-.134.237 22.112 22.112 0 01-1.45 3.046c-.333.56-.64 1.044-.92 1.455-.28.41-.514.713-.703.907-.19.194-.361.35-.515.467-.153.117-.27.167-.352.149a9.985 9.985 0 01-.23-.054.9.9 0 01-.305-.332 1.484 1.484 0 01-.155-.528 5.78 5.78 0 01-.048-.548 11.85 11.85 0 01.007-.65c.01-.28.014-.47.014-.569a32 32 0 01.02-1.116c.014-.402.024-.72.034-.955.009-.234.013-.483.013-.744a3.17 3.17 0 00-.047-.616 2.108 2.108 0 00-.142-.433.73.73 0 00-.277-.325 1.566 1.566 0 00-.454-.183C13.858.653 13.25.594 12.508.585 10.83.567 9.751.675 9.273.91c-.19.1-.361.235-.514.406-.163.199-.185.307-.068.325.541.08.925.275 1.15.582l.082.162c.063.118.126.325.19.623.063.298.103.627.121.988.045.659.045 1.223 0 1.692a20.1 20.1 0 01-.129 1.097c-.04.261-.101.474-.182.636a2.684 2.684 0 01-.163.298.233.233 0 01-.067.067c-.118.045-.24.068-.366.068s-.28-.063-.46-.19c-.18-.126-.368-.3-.562-.52a6.967 6.967 0 01-.657-.928 16.18 16.18 0 01-.758-1.408l-.216-.392c-.135-.253-.32-.62-.555-1.104a21.54 21.54 0 01-.623-1.4.892.892 0 00-.325-.434l-.067-.04a.926.926 0 00-.217-.116c-.1-.04-.203-.07-.311-.088l-3.71.027c-.378 0-.636.086-.771.258l-.054.08A.438.438 0 000 1.817c0 .1.027.222.081.366.542 1.272 1.13 2.5 1.767 3.682C2.484 7.047 3.037 8 3.506 8.721c.47.722.948 1.404 1.435 2.044.487.641.81 1.052.968 1.232.158.18.282.316.372.406l.339.325c.216.217.534.476.954.778.42.303.884.6 1.394.894.51.293 1.104.532 1.78.717.677.186 1.336.26 1.977.224h1.557c.316-.027.555-.127.717-.298l.054-.068a.894.894 0 00.102-.25c.031-.113.047-.237.047-.372-.01-.388.02-.738.088-1.05.067-.31.144-.545.23-.703a1.727 1.727 0 01.522-.596.904.904 0 01.107-.047c.217-.072.472-.002.766.21.293.212.568.474.826.785.257.312.566.661.927 1.05.36.387.677.676.947.866l.27.162c.182.108.416.208.705.298.288.09.541.113.758.068l3.465-.054c.343 0 .61-.057.799-.17.19-.113.302-.237.339-.372a1.04 1.04 0 00.006-.46 1.7 1.7 0 00-.095-.36z"/></svg><svg viewBox="0 0 10 8" id="yes" xmlns="http://www.w3.org/2000/svg"><path d="M3.57 7.5L.247 4.175l.831-.831 2.494 2.493L8.923.485l.831.832L3.571 7.5z"/></svg></svg>