<svg width="61" height="59" viewBox="0 0 61 59" fill="none" xmlns="http://www.w3.org/2000/svg">
<path d="M38.3341 21.8284C37.247 20.6494 35.7554 20 34.1336 20C32.9214 20 31.8113 20.3832 30.834 21.139C30.3408 21.5205 29.894 21.9872 29.5 22.5319C29.1062 21.9873 28.6592 21.5205 28.1659 21.139C27.1887 20.3832 26.0786 20 24.8664 20C23.2446 20 21.7529 20.6494 20.6658 21.8284C19.5917 22.9937 19 24.5856 19 26.3111C19 28.0871 19.6619 29.7129 21.0828 31.4275C22.354 32.9613 24.1809 34.5182 26.2966 36.3212C27.019 36.9369 27.8379 37.6348 28.6882 38.3782C28.9128 38.575 29.201 38.6833 29.5 38.6833C29.7988 38.6833 30.0872 38.575 30.3115 38.3785C31.1618 37.635 31.9811 36.9367 32.7039 36.3207C34.8192 34.5181 36.6462 32.9613 37.9173 31.4273C39.3383 29.7129 40 28.0871 40 26.311C40 24.5856 39.4083 22.9937 38.3341 21.8284Z" fill="#EFEFEF"/>
<rect x="0.5" y="0.5" width="60" height="58" rx="3.5" stroke="white"/>
</svg>
